<?xml version="1.0" ?><!DOCTYPE svg  PUBLIC '-//W3C//DTD SVG 1.1//EN'  'http://www.w3.org/Graphics/SVG/1.1/DTD/svg11.dtd'><svg enable-background="new 0 0 64 64" height="64px" id="Layer_1" version="1.1" viewBox="0 0 64 64" width="64px" xml:space="preserve" xmlns="http://www.w3.org/2000/svg" xmlns:xlink="http://www.w3.org/1999/xlink"><g><path d="M32.571,33.454h-1.142c-1.835,0-3.323,1.487-3.323,3.322v5.737v0.39c0,1.361,0.821,2.527,1.992,3.042   c0.116,0.045,0.471,0.17,1.012,0.248c0.096,0.01,0.189,0.027,0.286,0.029c0.665,0.063,1.523,0.032,2.5-0.286   c0.951-0.418,1.672-1.259,1.908-2.294c0.017-0.084,0.031-0.17,0.041-0.258c0.024-0.159,0.048-0.316,0.048-0.481v-6.127   C35.893,34.941,34.405,33.454,32.571,33.454z" fill="#241F20"/><path d="M63.999,59.635l-0.172-1.129l-6.143-40.26c0,0-0.013,0.028-0.016,0.034   c-0.64-3.952-4.041-6.979-8.175-6.979h-7.215V9.397c0-4.586-3.719-8.307-8.308-8.307h-3.945c-4.588,0-8.307,3.721-8.307,8.307   v1.903H14.5c-3.378,0-6.272,2.026-7.57,4.923l-0.008-0.01l-0.005,0.034c-0.279,0.628-0.476,1.296-0.594,1.99l-0.012-0.003   l-1.455,9.923H4.821c0.01,0.016,0.02,0.03,0.029,0.047l-1.092,7.447l-0.634,3.894H3.062L0.021,59.477c0,0-0.604,3.433,2.408,3.433   H14.5h34.994h11.63C64.2,62.909,64.08,60.307,63.999,59.635z M24.75,10.064c0-3.235,2.622-5.858,5.857-5.858h2.784   c3.234,0,5.856,2.623,5.856,5.858v1.236H24.75V10.064z M57.584,59.771H47.367H16.629H6.024c-2.645,0-2.116-3.015-2.116-3.015   l2.672-17.506h0.054l0.556-3.424l0.117-0.795c0.424-2.68,2.348-1.092,2.348-1.092l0.008-0.015c3.612,3.12,8.413,5.434,13.874,6.64   c1.861,0.423,2.192-1.172,2.244-1.596l0.006-0.06c0.001-0.013,0.004-0.042,0.004-0.042l0.141-1.369v-0.002   c0.186-4.199,0.577-4.426,0.577-4.426s0.021-0.009,0.024-0.01c0.675-1.613,2.479-2.774,4.623-2.774h1.691   c2.601,0,4.709,1.707,4.885,3.863l0.02-0.01l0.48,4.302c0,0.004,0.256,2.653,2.9,1.983c5.017-1.207,9.447-3.358,12.867-6.209   l0.004,0.01c0,0,2.342-1.998,2.854,1.35v0.002l3.099,20.325l0.152,0.993C60.18,57.487,60.287,59.771,57.584,59.771z" fill="#241F20"/></g></svg>